# xmcd
#
# Track frame offsets: 
#        150
#        15095
#        28981
#        40953
#        51394
#        62002
#        74891
#        86001
#        98722
#        112097
#        123889
#        133978
#
# Disc length: 1976 seconds
#
# Revision: 1
# Processed by: cddbd v1.5.2PL0 Copyright (c) Steve Scherf et al.
# Submitted via: ExactAudioCopy v1.3
#
DISCID=ae07b60c
DTITLE=Jancis Harvey - Time Was Now
DYEAR=1975
DGENRE=Folk
TTITLE0=Time Was Now
TTITLE1=Darcy Farrow
TTITLE2=Annie's Song
TTITLE3=Farewell She
TTITLE4=Far Polly
TTITLE5=Bolberry Down
TTITLE6=Cool Summer Wine
TTITLE7=Four Strong Winds
TTITLE8=Wild Flying Dove
TTITLE9=The Corner Cafe
TTITLE10=This Old Guitar
TTITLE11=The Night They Drove Old Dixie Down
EXTD=remastered
EXTT0=
EXTT1=
EXTT2=
EXTT3=
EXTT4=
EXTT5=
EXTT6=
EXTT7=
EXTT8=
EXTT9=
EXTT10=
EXTT11=
PLAYORDER=
